<svg viewBox="0 0 1024 1024"><path  d="M512 512m-512 0a512 512 0 1 0 1024 0 512 512 0 1 0-1024 0Z" fill="#409EFF"></path><path  d="M654.222222 256c-17.066667 0-28.444444 11.377778-28.444444 28.444444v56.888889c0 17.066667 11.377778 28.444444 28.444444 28.444445s28.444444-11.377778 28.444445-28.444445v-56.888889c0-17.066667-11.377778-28.444444-28.444445-28.444444zM369.777778 256c-17.066667 0-28.444444 11.377778-28.444445 28.444444v56.888889c0 17.066667 11.377778 28.444444 28.444445 28.444445s28.444444-11.377778 28.444444-28.444445v-56.888889c0-17.066667-11.377778-28.444444-28.444444-28.444444z" fill="#FFFFFF"></path><path  d="M725.333333 312.888889H711.111111v28.444444c0 31.288889-25.6 56.888889-56.888889 56.888889s-56.888889-25.6-56.888889-56.888889v-28.444444h-170.666666v28.444444c0 31.288889-25.6 56.888889-56.888889 56.888889s-56.888889-25.6-56.888889-56.888889v-28.444444h-14.222222c-22.755556 0-42.666667 19.911111-42.666667 42.666667v341.333333c0 22.755556 19.911111 42.666667 42.666667 42.666667h426.666666c22.755556 0 42.666667-19.911111 42.666667-42.666667v-341.333333c0-22.755556-19.911111-42.666667-42.666667-42.666667zM426.666667 654.222222h-56.888889c-17.066667 0-28.444444-11.377778-28.444445-28.444444s11.377778-28.444444 28.444445-28.444445h56.888889c17.066667 0 28.444444 11.377778 28.444444 28.444445s-11.377778 28.444444-28.444444 28.444444z m227.555555 0h-56.888889c-17.066667 0-28.444444-11.377778-28.444444-28.444444s11.377778-28.444444 28.444444-28.444445h56.888889c17.066667 0 28.444444 11.377778 28.444445 28.444445s-11.377778 28.444444-28.444445 28.444444z m0-113.777778h-56.888889c-17.066667 0-28.444444-11.377778-28.444444-28.444444s11.377778-28.444444 28.444444-28.444444h56.888889c17.066667 0 28.444444 11.377778 28.444445 28.444444s-11.377778 28.444444-28.444445 28.444444z" fill="#FFFFFF"></path></svg>