<svg t="1642670011510" class="icon side-icon" viewBox="0 0 1024 1024" version="1.1" xmlns="http://www.w3.org/2000/svg" p-id="3116" width="200" height="200"><path d="M836.3008 170.6496c17.1008 0 31.2832 12.6464 33.7408 29.0816L870.4 204.8v316.16a34.1504 34.1504 0 0 1-29.0816 33.792l-5.0176 0.3584h-102.4v195.7888a34.1504 34.1504 0 0 1-29.1328 33.792l-5.0176 0.3584H386.7648l-127.3344 95.5392a34.2016 34.2016 0 0 1-53.248-17.3568l-1.024-4.8128-0.3584-5.12-0.0512-68.3008H153.6a34.1504 34.1504 0 0 1-32.6656-24.2176l-1.0752-4.8128-0.4096-5.0688v-409.6c0-17.152 12.6464-31.3344 29.0816-33.792L153.6 307.2h174.2336V204.8c0-17.152 12.6464-31.3344 29.1328-33.792l5.0176-0.3584h474.3168z m-477.9008 409.6H256l-5.0688 0.4096a34.1504 34.1504 0 0 0 0 67.4816l5.0688 0.4096h102.4l5.0688-0.4096A34.1504 34.1504 0 0 0 358.4 580.2496z m102.4-136.4992H256l-5.0688 0.4096a34.1504 34.1504 0 0 0 0 67.4816l5.0688 0.4096h204.8l5.0688-0.4096A34.1504 34.1504 0 0 0 460.8 443.7504z m341.2992-204.8512h-406.016v68.2496h303.616c17.152 0 31.3856 12.6464 33.792 29.1328l0.3584 5.0176v145.4592l68.2496 0.0512V238.8992z" p-id="3117"></path></svg>