<svg t="1642669966795" class="icon side-icon" viewBox="0 0 1024 1024" version="1.1" xmlns="http://www.w3.org/2000/svg" p-id="2862" width="200" height="200"><path d="M749.2096 168.96a102.4 102.4 0 0 1 102.2464 96.3584l0.1536 6.0416v477.8496a102.4 102.4 0 0 1-96.3584 102.2464l-6.0416 0.1536H271.36a102.4 102.4 0 0 1-102.2464-96.3584l-0.1536-6.0416V271.36a102.4 102.4 0 0 1 96.3584-102.2464L271.36 168.96h477.8496z m-69.9392 385.4848a34.1504 34.1504 0 0 0-48.2816 0 170.6496 170.6496 0 0 1-241.3568 0 34.1504 34.1504 0 1 0-48.2816 48.2304 238.9504 238.9504 0 0 0 337.92 0 34.1504 34.1504 0 0 0 0-48.2304zM322.56 339.6608a51.2 51.2 0 0 0-51.2 51.2v34.1504a51.2 51.2 0 1 0 102.4 0v-34.1504a51.2 51.2 0 0 0-51.2-51.2z m375.4496 0a51.2 51.2 0 0 0-51.2 51.2v34.1504a51.2 51.2 0 1 0 102.4 0v-34.1504a51.2 51.2 0 0 0-51.2-51.2z" p-id="2863"></path></svg>