<?xml version="1.0" standalone="no"?><!DOCTYPE svg PUBLIC "-//W3C//DTD SVG 1.1//EN" "http://www.w3.org/Graphics/SVG/1.1/DTD/svg11.dtd"><svg t="1676431503228" class="icon" viewBox="0 0 1024 1024" version="1.1" xmlns="http://www.w3.org/2000/svg" p-id="6159" xmlns:xlink="http://www.w3.org/1999/xlink" width="32" height="32"><path d="M778.666667 117.333333c64.8 0 117.333333 52.533333 117.333333 117.333334v640c0 25.557333-28.48 40.8-49.749333 26.624l-77.162667-51.434667L708.266667 895.466667a42.666667 42.666667 0 0 1-51.2 0l-59.733334-44.8-59.733333 44.8a42.666667 42.666667 0 0 1-51.2 0l-59.733333-44.8-59.733334 44.8a42.666667 42.666667 0 0 1-51.2 0l-60.821333-45.610667-77.162667 51.434667C156.48 915.477333 128 900.224 128 874.666667V234.666667c0-64.8 52.533333-117.333333 117.333333-117.333334h533.333334z m0 64H245.333333a53.333333 53.333333 0 0 0-53.333333 53.333334v580.202666l39.968-26.645333a42.666667 42.666667 0 0 1 49.269333 1.376L341.333333 834.666667l59.733334-44.8a42.666667 42.666667 0 0 1 51.2 0l59.733333 44.8 59.733333-44.8a42.666667 42.666667 0 0 1 51.2 0l59.733334 44.8 60.096-45.066667a42.666667 42.666667 0 0 1 49.269333-1.376L832 814.869333V234.666667a53.333333 53.333333 0 0 0-53.333333-53.333334zM565.333333 522.666667a32 32 0 0 1 0 64H352a32 32 0 0 1 0-64z m106.666667-170.666667a32 32 0 0 1 0 64H352a32 32 0 0 1 0-64z" fill="#000000" p-id="6160"></path></svg>