<svg t="1642646834655" class="icon side-icon" viewBox="0 0 1024 1024" version="1.1" xmlns="http://www.w3.org/2000/svg" p-id="4061" width="200" height="200"><path d="M810.6496 153.6C843.6736 153.6 870.4 180.3264 870.4 213.3504v597.2992c0 33.024-26.7264 59.7504-59.7504 59.7504H213.3504A59.7504 59.7504 0 0 1 153.6 810.6496V213.3504C153.6 180.3264 180.3264 153.6 213.3504 153.6z m-332.8 460.8H341.3504a34.1504 34.1504 0 0 0 0 68.2496h136.4992a34.1504 34.1504 0 1 0 0-68.2496z m204.8-136.6016H341.3504a34.1504 34.1504 0 0 0 0 68.2496h341.2992a34.1504 34.1504 0 0 0 0-68.2496z m0-136.3968H341.3504a34.1504 34.1504 0 0 0 0 68.2496h341.2992a34.1504 34.1504 0 1 0 0-68.2496z" p-id="4062"></path></svg>