<?xml version="1.0" standalone="no"?><!DOCTYPE svg PUBLIC "-//W3C//DTD SVG 1.1//EN" "http://www.w3.org/Graphics/SVG/1.1/DTD/svg11.dtd"><svg t="1670465352302" class="icon" viewBox="0 0 1024 1024" version="1.1" xmlns="http://www.w3.org/2000/svg" p-id="3896" xmlns:xlink="http://www.w3.org/1999/xlink" width="32" height="32"><path d="M518.965333 847.498667c-21.290667 3.84-43.232 5.834667-65.632 5.834666a366.4 366.4 0 0 1-189.002666-52.181333 2118.4 2118.4 0 0 0-15.306667-8.981333l-86.944 23.712c-23.893333 6.506667-45.813333-15.402667-39.296-39.296l23.68-86.848c-8.821333-15.008-14.656-25.152-17.632-30.709334A366.485333 366.485333 0 0 1 85.333333 485.333333C85.333333 282.090667 250.090667 117.333333 453.333333 117.333333c185.514667 0 338.965333 137.269333 364.32 315.776A255.850667 255.850667 0 0 1 938.666667 650.666667c0 42.709333-10.496 83.978667-30.261334 120.842666-1.792 3.338667-4.992 8.928-9.696 16.96l14.613334 53.557334c6.506667 23.893333-15.402667 45.813333-39.296 39.296l-53.642667-14.634667-6.229333 3.669333A254.933333 254.933333 0 0 1 682.666667 906.666667a255.061333 255.061333 0 0 1-163.701334-59.168z m79.861334-24.042667A191.36 191.36 0 0 0 682.666667 842.666667a190.933333 190.933333 0 0 0 98.570666-27.2c2.208-1.322667 8.288-4.874667 18.517334-10.837334a32 32 0 0 1 24.522666-3.210666l12.565334 3.424-3.424-12.565334a32 32 0 0 1 3.338666-24.725333 996.672 996.672 0 0 0 15.242667-26.293333A190.997333 190.997333 0 0 0 874.666667 650.666667a191.68 191.68 0 0 0-54.634667-134.186667C808.458667 654.570667 720.650667 770.965333 598.826667 823.466667z m-387.050667-129.92l-12.512 45.866667 45.866667-12.512a32 32 0 0 1 24.522666 3.221333c15.253333 8.885333 24.373333 14.218667 27.594667 16.149333A302.4 302.4 0 0 0 453.333333 789.333333C621.226667 789.333333 757.333333 653.226667 757.333333 485.333333S621.226667 181.333333 453.333333 181.333333 149.333333 317.44 149.333333 485.333333c0 50.794667 12.448 99.712 35.904 143.456 3.104 5.792 10.933333 19.306667 23.2 40.021334a32 32 0 0 1 3.338667 24.725333zM586.666667 373.333333a32 32 0 0 1 0 64H320a32 32 0 0 1 0-64h266.666667zM458.666667 533.333333a32 32 0 0 1 0 64H320a32 32 0 0 1 0-64h138.666667z" p-id="3897"></path></svg>