<?xml version="1.0" standalone="no"?><!DOCTYPE svg PUBLIC "-//W3C//DTD SVG 1.1//EN" "http://www.w3.org/Graphics/SVG/1.1/DTD/svg11.dtd"><svg t="1669796762343" class="icon" viewBox="0 0 1024 1024" version="1.1" xmlns="http://www.w3.org/2000/svg" p-id="6444" xmlns:xlink="http://www.w3.org/1999/xlink" width="32" height="32"><path d="M919.724 715.073c-1.14-27.354-19.024-42.46-42.619-41.9-23.378 0.555-38.8 15.93-40.994 43.89-1.61 20.54-0.232 41.299-0.677 61.951-1.115 51.829-12.339 63.805-64.15 64.827-49.91 0.985-99.854 0.323-149.782 0.327-115.351 0.01-230.704 0.094-346.056-0.065-79.44-0.11-86.325-6.973-86.704-84.204-0.069-13.77 0.625-27.626-0.64-41.293-2.692-29.088-16.328-44.222-39.415-45.527-24.92-1.412-43.084 15.533-44.99 45.495-1.742 27.442-0.763 55.071-0.582 82.615 0.59 89.17 40.096 129.183 129.294 129.692 92.967 0.532 185.939 0.119 278.91 0.14 27.546 0.023 55.094 0.032 82.64 0.022 70.59-0.025 141.195 0.957 211.759-0.393 62.212-1.19 107.706-37.177 112.958-91.757 3.941-40.953 2.765-82.6 1.048-123.82z" fill="" p-id="6445"></path><path d="M197.858 440.866c88.757 88.806 177.526 177.602 266.293 266.398 3.647 3.65 7.362 7.23 10.984 10.903 14.285 14.481 30.948 22.644 51.135 14.996 6.585-2.495 11.48-6.255 15.665-10.523 2.763-1.912 5.47-4.017 7.93-6.408 45.635-44.375 240.102-239.468 285.027-284.574 4.826-4.845 9.464-10.053 13.27-15.71 12.213-18.165 10.54-35.96-3.947-51.855-14.818-16.257-33.48-16.94-51.874-7.894-8.93 4.39-16.286 12.46-23.557 19.673-30.24 29.99-139.611 139.264-212.845 212.61 0.038-114.56 0.05-229.12 0.027-343.68-0.006-34.399 1.091-68.86-0.615-103.176-1.587-31.878-17.058-48.14-41.969-48.957-25.551-0.839-41.055 14.728-44.538 46.158-1.32 11.908-0.623 24.054-0.63 36.092-0.04 75.676-0.02 151.355-0.02 227.034-0.002 56.59 0 113.181 0 169.773l-11.785 5.215c-22.75-22.663-45.526-45.304-68.245-67.997-47.453-47.405-94.29-95.445-142.576-141.985-21.8-21.014-47.07-21.359-64.429-4.84-18.71 17.803-18.05 39 2.326 63.95 4.334 5.306 9.512 9.931 14.373 14.797z" fill="" p-id="6446"></path></svg>