<?xml version="1.0" standalone="no"?><!DOCTYPE svg PUBLIC "-//W3C//DTD SVG 1.1//EN" "http://www.w3.org/Graphics/SVG/1.1/DTD/svg11.dtd"><svg t="1671521138932" class="icon" viewBox="0 0 1024 1024" version="1.1" xmlns="http://www.w3.org/2000/svg" p-id="4312" xmlns:xlink="http://www.w3.org/1999/xlink" width="32" height="32"><path d="M947.2 179.2c-30.72-30.72-76.8-30.72-107.52 0l-343.04 343.04c-10.24 10.24-15.36 20.48-20.48 30.72l-30.72 97.28v15.36c5.12 15.36 20.48 20.48 30.72 15.36l97.28-30.72c10.24-5.12 20.48-10.24 30.72-20.48l343.04-343.04c30.72-30.72 30.72-76.8 0-107.52z" fill="#3f9eff" p-id="4313"></path><path d="M921.6 512c0-15.36 10.24-25.6 25.6-25.6s25.6 10.24 25.6 25.6v332.8c0 71.68-56.32 128-128 128h-665.6C107.52 972.8 51.2 916.48 51.2 844.8v-665.6C51.2 107.52 107.52 51.2 179.2 51.2H512c15.36 0 25.6 10.24 25.6 25.6s-10.24 25.6-25.6 25.6H179.2C138.24 102.4 102.4 138.24 102.4 179.2v665.6c0 40.96 35.84 76.8 76.8 76.8h665.6c40.96 0 76.8-35.84 76.8-76.8V512z m-25.6-384c-30.72-30.72-76.8-30.72-107.52 0L440.32 471.04l-15.36 30.72-30.72 97.28v15.36c5.12 15.36 20.48 20.48 30.72 15.36l97.28-30.72c10.24-5.12 20.48-10.24 30.72-20.48l343.04-343.04c30.72-30.72 30.72-76.8 0-107.52z m35.84-35.84c51.2 51.2 51.2 133.12 0 179.2L588.8 614.4c-15.36 15.36-30.72 25.6-51.2 30.72l-97.28 30.72c-40.96 15.36-81.92-10.24-97.28-46.08-5.12-15.36-5.12-30.72 0-46.08l30.72-97.28c5.12-20.48 15.36-35.84 30.72-51.2l343.04-343.04c56.32-51.2 133.12-51.2 184.32 0z" fill="#3f9eff" p-id="4314"></path></svg>