<?xml version="1.0" standalone="no"?><!DOCTYPE svg PUBLIC "-//W3C//DTD SVG 1.1//EN" "http://www.w3.org/Graphics/SVG/1.1/DTD/svg11.dtd"><svg t="1671523311770" class="icon" viewBox="0 0 1024 1024" version="1.1" xmlns="http://www.w3.org/2000/svg" p-id="5554" xmlns:xlink="http://www.w3.org/1999/xlink" width="32" height="32"><path d="M511.488 118.670222a398.222222 398.222222 0 1 0 0 796.444445 398.222222 398.222222 0 0 0 0-796.444445z m0-85.333333a483.555556 483.555556 0 1 1 0 967.111111 483.555556 483.555556 0 0 1 0-967.111111zM292.067556 378.709333a69.063111 69.063111 0 1 1 138.126222 0 69.063111 69.063111 0 0 1-138.126222 0z m300.657777 0a69.063111 69.063111 0 1 1 138.183111 0 69.063111 69.063111 0 0 1-138.183111 0zM275.626667 545.336889h475.249777c0 108.828444-100.067556 239.502222-240.355555 239.502222-140.231111 0-234.894222-130.673778-234.894222-239.502222z" fill="#333333" p-id="5555"></path></svg>