<?xml version="1.0" standalone="no"?><!DOCTYPE svg PUBLIC "-//W3C//DTD SVG 1.1//EN" "http://www.w3.org/Graphics/SVG/1.1/DTD/svg11.dtd"><svg t="1675606785591" class="icon" viewBox="0 0 1024 1024" version="1.1" xmlns="http://www.w3.org/2000/svg" p-id="4598" xmlns:xlink="http://www.w3.org/1999/xlink" width="32" height="32"><path d="M456.448 64a170.666667 170.666667 0 0 1 103.253333 34.773333l78.336 59.541334H768c117.824 0 213.333333 95.509333 213.333333 213.333333V746.666667c0 117.824-95.509333 213.333333-213.333333 213.333333H256C138.176 960 42.666667 864.490667 42.666667 746.666667V277.333333C42.666667 159.509333 138.176 64 256 64h200.448z m0 74.666667H256a138.666667 138.666667 0 0 0-138.581333 133.696L117.333333 277.333333v469.333334a138.666667 138.666667 0 0 0 133.696 138.581333L256 885.333333h512a138.666667 138.666667 0 0 0 138.581333-133.696L906.666667 746.666667V371.648a138.666667 138.666667 0 0 0-133.696-138.581333L768 232.981333h-129.962667a74.666667 74.666667 0 0 1-41.173333-12.373333l-4.010667-2.837333-78.314666-59.52a96 96 0 0 0-52.864-19.434667l-5.226667-0.149333z" fill="#4C4948" p-id="4599"></path><path d="M469.333333 624a37.333333 37.333333 0 0 1 3.072 74.538667L469.333333 698.666667h-170.666666a37.333333 37.333333 0 0 1-3.072-74.538667L298.666667 624h170.666666z" fill="#4C4948" p-id="4600"></path></svg>