<svg t="1642646844599" class="icon side-icon" viewBox="0 0 1024 1024" version="1.1" xmlns="http://www.w3.org/2000/svg" p-id="4188" width="200" height="200"><path d="M772.4544 229.2736l2.048 6.4512 87.2448 283.136c8.8576 33.1264-10.24 66.56-41.984 78.4384l-6.5536 2.048-118.1696 31.744a32.768 32.768 0 0 1-8.192 1.0752l-4.096-0.2048-124.672-14.6432-193.3824 51.8144 36.6592 136.704a49.152 49.152 0 0 1-93.184 30.8736l-1.792-5.4272L155.2896 267.264a49.152 49.152 0 0 1 93.184-30.8736l1.792 5.4272 4.096 15.36 188.928-50.6368a32.768 32.768 0 0 1 8.1408-1.0752l4.096 0.2048 124.5184 14.592 112.1792-30.0544c33.4336-8.96 68.1984 7.7824 80.2304 39.0144z" p-id="4189"></path></svg>