<?xml version="1.0" standalone="no"?><!DOCTYPE svg PUBLIC "-//W3C//DTD SVG 1.1//EN" "http://www.w3.org/Graphics/SVG/1.1/DTD/svg11.dtd"><svg t="1676862416718" class="icon" viewBox="0 0 1024 1024" version="1.1" xmlns="http://www.w3.org/2000/svg" p-id="7275" xmlns:xlink="http://www.w3.org/1999/xlink" width="32" height="32"><path d="M418.688 133.333333a122.666667 122.666667 0 0 1 93.013333 42.666667H785.066667a186.666667 186.666667 0 0 1 186.581333 181.162667l0.085333 5.504v17.92h-0.256c0.170667 1.429333 0.256 2.88 0.256 4.373333V789.333333a186.666667 186.666667 0 0 1-186.666666 186.666667H238.933333A186.666667 186.666667 0 0 1 52.266667 789.333333V320a186.666667 186.666667 0 0 1 186.666666-186.666667z m0 74.666667H238.933333A112 112 0 0 0 126.933333 320v469.333333c0 61.866667 50.133333 112 112 112h546.133334c61.866667 0 112-50.133333 112-112V422.272H615.04a122.666667 122.666667 0 0 1-113.834667-76.992l-1.834666-4.842667-35.413334-100.416a48 48 0 0 0-45.269333-32.021333zM448 688a37.333333 37.333333 0 0 1 3.072 74.538667L448 762.666667h-170.666667a37.333333 37.333333 0 0 1-3.072-74.538667L277.333333 688h170.666667z m337.066667-437.333333H546.88l22.912 64.917333a48 48 0 0 0 41.685333 31.914667l3.562667 0.128 281.024-0.021334a112.021333 112.021333 0 0 0-106.389333-96.853333l-4.608-0.085333z" fill="#2c2c2c" p-id="7276"></path></svg>