<?xml version="1.0" standalone="no"?><!DOCTYPE svg PUBLIC "-//W3C//DTD SVG 1.1//EN" "http://www.w3.org/Graphics/SVG/1.1/DTD/svg11.dtd"><svg t="1677133669657" class="icon" viewBox="0 0 1024 1024" version="1.1" xmlns="http://www.w3.org/2000/svg" p-id="2804" xmlns:xlink="http://www.w3.org/1999/xlink" width="32" height="32"><path d="M936.13279 433.936063c-17.252943-32.621978-48.208978-55.110155-89.521896-65.033156-32.782637-7.873318-114.683972-3.936659-151.573137-1.63422 6.766101-65.354474 10.601452-114.959242 9.469676-155.414629-1.432629-51.210335-11.251252-85.241406-30.898731-107.096157-18.09103-20.123316-44.141336-29.9051-79.639828-29.9051-30.096459 0-54.340629 9.095145-72.056106 27.03268-36.361139 36.815487-35.560914 101.33085-35.030841 144.023184 0.106424 8.563026 0.197498 15.957437-0.011256 22.040992-1.924839 56.108902-37.20332 99.645464-104.855116 129.400139-49.620118 21.824051-99.674117 28.074406-106.10048 28.807093L128.36046 426.15689c-27.834952 0-50.480718 22.644743-50.480718 50.480718l0 425.233867c0 27.833929 22.644743 50.479695 50.480718 50.479695L292.096614 952.35117 292.096614 454.914864c20.443611-3.216251 60.631916-11.258415 101.58463-29.161157 78.697363-34.404578 121.530914-88.608084 123.869169-156.75209 0.233314-6.79987 0.13303-14.899338 0.025583-23.473621-0.465604-37.58399-1.170662-94.381577 26.177196-122.070196 11.900028-12.048407 28.325116-17.905812 50.213635-17.905812 26.657126 0 44.708248 6.268774 56.81089 19.729344 32.549324 36.20662 25.430182 129.323391 11.82021 256.919441l-1.957585 18.351973 18.400069-1.419326c34.101679-2.63092 129.392976-7.826246 160.400177-0.379647 32.954553 7.916297 56.356542 24.581861 69.554122 49.535183 20.386306 38.544875 16.294105 96.176456-12.159948 171.295318-38.036291 100.416014-83.21219 187.532117-114.411773 242.929822-16.264429 28.877701-47.566342 48.693002-57.319473 54.374398l-335.324138 4.76349 0.435928 30.695093 342.844415-4.869914 3.224438-1.676176c1.989307-1.033539 48.994877-25.801642 72.887031-68.223824 31.718399-56.319703 77.655637-144.910391 116.371404-247.119237C957.257923 546.734082 960.820052 480.615199 936.13279 433.936063zM261.397429 921.649937 128.36046 921.649937c-10.907421 0-19.781532-8.874111-19.781532-19.780509L108.578927 476.635561c0-10.907421 8.873088-19.781532 19.781532-19.781532L261.397429 456.854029 261.397429 921.649937z" fill="#ffffff" p-id="2805"></path></svg>