<?xml version="1.0" standalone="no"?><!DOCTYPE svg PUBLIC "-//W3C//DTD SVG 1.1//EN" "http://www.w3.org/Graphics/SVG/1.1/DTD/svg11.dtd"><svg t="1670464761084" class="icon" viewBox="0 0 1024 1024" version="1.1" xmlns="http://www.w3.org/2000/svg" p-id="3280" xmlns:xlink="http://www.w3.org/1999/xlink" width="32" height="32"><path d="M155.584 342.56l312.874667-224.565333a74.666667 74.666667 0 0 1 87.082666 0l312.874667 224.565333A117.333333 117.333333 0 0 1 917.333333 437.866667V800c0 64.8-52.533333 117.333333-117.333333 117.333333H224c-64.8 0-117.333333-52.533333-117.333333-117.333333V437.877333a117.333333 117.333333 0 0 1 48.917333-95.317333z m37.322667 51.989333A53.333333 53.333333 0 0 0 170.666667 437.877333V800a53.333333 53.333333 0 0 0 53.333333 53.333333h576a53.333333 53.333333 0 0 0 53.333333-53.333333V437.877333a53.333333 53.333333 0 0 0-22.24-43.328L518.218667 169.984a10.666667 10.666667 0 0 0-12.437334 0L192.906667 394.56z" p-id="3281"></path></svg>