<svg  viewBox="0 0 1024 1024" width="15" height="15" style="vertical-align: -3px;"><path data-v-73f97166="" d="M905.0112 560.4352l-342.784 342.784c-56.7808 56.7808-148.7872 56.7808-205.568 0l-231.5776-231.5776c-56.7808-56.7808-56.7808-148.7872 0-205.568l342.9376-342.9376a114.8928 114.8928 0 0 1 84.224-33.5872l266.3936 7.2192c60.7744 1.6384 109.7216 50.3808 111.5648 111.1552l8.2944 267.8272c1.024 31.6928-11.1104 62.3104-33.4848 84.6848z" fill="#8C7BFD"></path><path data-v-73f97166="" d="M675.2256 491.4688c-82.176 0-149.0432-66.8672-149.0432-149.0432s66.8672-149.0432 149.0432-149.0432 149.0432 66.8672 149.0432 149.0432-66.8672 149.0432-149.0432 149.0432z m0-192.2048c-23.808 0-43.2128 19.3536-43.2128 43.2128 0 23.808 19.3536 43.2128 43.2128 43.2128 23.808 0 43.2128-19.3536 43.2128-43.2128s-19.4048-43.2128-43.2128-43.2128z" fill="#FFE37B"></path></svg>