<svg t="1642646710703" class="icon side-icon" viewBox="0 0 1024 1024" version="1.1" xmlns="http://www.w3.org/2000/svg" p-id="3158" width="200" height="200"><path d="M682.6496 204.8512c35.4816 0 64.6656 27.136 67.9424 61.696l0.3072 6.6048V358.4l81.92-61.44a34.2016 34.2016 0 0 1 53.248 17.408l1.024 4.7616 0.3584 5.12v392.5504a34.1504 34.1504 0 0 1-50.2784 30.1056l-4.352-2.7648-81.92-61.4912v68.3008c0 33.1264-23.552 60.7232-54.8352 66.9696l-6.8608 1.024-6.5536 0.256H204.8a68.2496 68.2496 0 0 1-67.9936-61.696l-0.3072-6.5536V273.152c0-35.4816 27.136-64.6656 61.696-67.9936L204.8 204.8512h477.8496zM385.3824 389.12a34.1504 34.1504 0 0 0-34.0992 34.1504v179.6096a34.1504 34.1504 0 0 0 53.0432 28.416l134.7584-89.8048a34.1504 34.1504 0 0 0 0-56.832L404.3264 394.8544a34.1504 34.1504 0 0 0-18.944-5.7344z" p-id="3159"></path></svg>