<svg t="1642669999866" class="icon side-icon" viewBox="0 0 1024 1024" version="1.1" xmlns="http://www.w3.org/2000/svg" p-id="2989" width="200" height="200"><path d="M783.36 221.8496a102.4 102.4 0 0 1 102.0928 94.7712l0.3072 7.68v409.6a102.4 102.4 0 0 1-94.72 102.0928l-7.68 0.256H237.2096a102.4 102.4 0 0 1-102.0928-94.72l-0.3072-7.68v-409.6A102.4 102.4 0 0 1 229.5808 222.208l7.68-0.3072H783.36z m-155.5968 81.408a34.1504 34.1504 0 0 0-50.7904 23.6032l-54.1696 203.3152a128 128 0 1 0-108.288 220.8256l6.7584 1.024a128 128 0 0 0 141.5168-104.8576l71.7824-253.7984 47.4624 35.4816 3.2768 2.2016a34.1504 34.1504 0 0 0 37.5808-56.832l-91.8528-68.7616z" p-id="2990"></path></svg>