<?xml version="1.0" standalone="no"?><!DOCTYPE svg PUBLIC "-//W3C//DTD SVG 1.1//EN" "http://www.w3.org/Graphics/SVG/1.1/DTD/svg11.dtd"><svg t="1678099609228" class="icon" viewBox="0 0 1024 1024" version="1.1" xmlns="http://www.w3.org/2000/svg" p-id="2964" xmlns:xlink="http://www.w3.org/1999/xlink" width="32" height="32"><path d="M512 64c16.569 0 30 13.431 30 30l0.003 36.008C681.395 137.891 792 253.424 792 394.79v201.955a30 30 0 0 0 14.1 25.44l48.92 30.575C895.443 678.025 920 722.331 920 770c0 49.706-40.294 90-90 90H638.521C624.978 917.335 573.471 960 512 960c-61.471 0-112.978-42.666-126.521-100H194c-49.706 0-90-40.294-90-90 0-47.669 24.557-91.975 64.98-117.24l48.92-30.575a30 30 0 0 0 14.1-25.44V394.79c0-141.366 110.605-256.9 249.998-264.782L482 94c0-16.569 13.431-30 30-30z m63.264 796H448.736c11.235 23.65 35.34 40 63.264 40s52.03-16.35 63.264-40zM526.79 189.58h-29.58C383.876 189.58 292 281.454 292 394.79v201.955a90 90 0 0 1-42.3 76.32l-48.92 30.575A78.255 78.255 0 0 0 164 770c0 16.569 13.431 30 30 30h636c16.569 0 30-13.431 30-30 0-26.981-13.9-52.06-36.78-66.36l-48.92-30.575a90 90 0 0 1-42.3-76.32V394.79c0-113.335-91.876-205.21-205.21-205.21z" p-id="2965"></path></svg>