<?xml version="1.0" standalone="no"?><!DOCTYPE svg PUBLIC "-//W3C//DTD SVG 1.1//EN" "http://www.w3.org/Graphics/SVG/1.1/DTD/svg11.dtd"><svg t="1677459040798" class="icon" viewBox="0 0 1024 1024" version="1.1" xmlns="http://www.w3.org/2000/svg" p-id="1933" data-spm-anchor-id="a313x.7781069.0.i1" xmlns:xlink="http://www.w3.org/1999/xlink" width="32" height="32"><path d="M520.6 884.6c-51.1 0-100.8-10-147.5-29.8-45.1-19.1-85.6-46.4-120.4-81.2-34.8-34.8-62.1-75.3-81.2-120.4-19.8-46.7-29.8-96.4-29.8-147.5s10-100.8 29.8-147.5c19.1-45.1 46.4-85.6 81.2-120.4s75.3-62.1 120.4-81.2c46.7-19.8 96.4-29.8 147.5-29.8s100.8 10 147.5 29.8c45.1 19.1 85.6 46.4 120.4 81.2 34.8 34.8 62.1 75.3 81.2 120.4 19.8 46.7 29.8 96.4 29.8 147.5s-10 100.8-29.8 147.5c-19.1 45.1-46.4 85.6-81.2 120.4-34.8 34.8-75.3 62.1-120.4 81.2-46.8 19.7-96.4 29.8-147.5 29.8z m0-707c-180.9 0-328.1 147.2-328.1 328.1s147.2 328.1 328.1 328.1 328.1-147.2 328.1-328.1-147.2-328.1-328.1-328.1z" fill="#707070" p-id="1934"></path><path d="M276.7 720.3c-28.3 0-55.1-1.2-80.2-3.7-109-10.9-172.3-44.4-183.4-97-6.3-30 5.4-61.2 34.9-92.7 24.6-26.3 61.2-52.5 108.7-77.8l23.9 44.9c-42 22.3-75 45.7-95.4 67.6-12 12.9-25.6 31.6-22.3 47.5 3.1 14.9 20.9 26 35.3 32.7 24.7 11.5 60.4 19.8 103.3 24.1 23.5 2.4 48.8 3.5 75.4 3.5 78.3 0 168.4-10.1 261-29.5 124-26 237.1-65.6 318.5-111.5 37.6-21.2 66.9-43.2 84.9-63.6 10.5-11.9 22.3-29.2 19.2-44.1-4.3-20.3-40.8-45.7-130.6-55.9l5.7-50.5c103.5 11.8 163.9 45 174.6 96 11 52.5-33.5 108.7-128.9 162.4-85.7 48.3-204 89.8-333 116.9-95.9 20.3-189.6 30.7-271.6 30.7z" fill="#707070" p-id="1935"></path><path d="M720.1 446.7c-13 0-24.1-9.9-25.3-23.2C684.5 308.3 603.4 298.4 600 298h0.2l4.4-50.7c3.4 0.3 34.1 3.5 66.7 26.6 29.8 21.1 66.9 63.4 74.2 145 1.3 14-9.1 26.3-23.1 27.6-0.7 0.1-1.5 0.2-2.3 0.2z" fill="#707070" p-id="1936"></path></svg>