<?xml version="1.0" standalone="no"?><!DOCTYPE svg PUBLIC "-//W3C//DTD SVG 1.1//EN" "http://www.w3.org/Graphics/SVG/1.1/DTD/svg11.dtd"><svg t="1667893707124" class="icon" viewBox="0 0 1024 1024" version="1.1" xmlns="http://www.w3.org/2000/svg" p-id="3760" xmlns:xlink="http://www.w3.org/1999/xlink" width="32" height="32"><path d="M512 85.333333c72.533333 0 139.808 8.362667 200.202667 22.325334 21.258667 4.906667 40.192 10.208 56.586666 15.52 9.301333 3.018667 16.106667 5.472 20.245334 7.114666C831.733333 144.906667 864 192.106667 864 238.624v385.034667c0 43.402667-25.130667 95.52-58.837333 121.109333l-227.626667 172.810667c-36.992 28.085333-94.005333 28.149333-131.072 0l-227.626667-172.810667C185.28 719.285333 160 666.912 160 623.658667V238.624c0-46.826667 32.170667-94.218667 75.157333-108.405333 4.16-1.642667 10.901333-4.074667 20.053334-7.04a684.437333 684.437333 0 0 1 56.586666-15.52C372.192 93.685333 439.466667 85.333333 512 85.333333z m0 64c-67.456 0-129.930667 7.765333-185.781333 20.682667-19.424 4.48-36.586667 9.28-51.274667 14.048-5.056 1.632-9.418667 3.146667-13.056 4.48-2.058667 0.746667-3.349333 1.248-3.84 1.450667a32 32 0 0 1-2.485333 0.885333c-16.074667 5.034667-31.562667 27.626667-31.562667 47.744v385.034667c0 23.498667 16.128 56.917333 33.536 70.133333l227.626667 172.810667c14.176 10.773333 39.530667 10.741333 53.674666 0l227.626667-172.810667C784 680.469333 800 647.306667 800 623.658667V238.624c0-19.84-15.626667-42.506667-32-47.882667l-2.048-0.746666a143.829333 143.829333 0 0 0-3.84-1.450667c-3.637333-1.333333-8-2.848-13.056-4.48a620.778667 620.778667 0 0 0-51.274667-14.048C641.930667 157.098667 579.456 149.333333 512 149.333333z m137.354667 190.72a32 32 0 0 1 45.290666 45.226667l-213.013333 213.333333a32 32 0 0 1-45.226667 0.064l-106.986666-106.549333a32 32 0 1 1 45.162666-45.344l84.341334 83.989333z" p-id="3761"></path></svg>