<?xml version="1.0" standalone="no"?><!DOCTYPE svg PUBLIC "-//W3C//DTD SVG 1.1//EN" "http://www.w3.org/Graphics/SVG/1.1/DTD/svg11.dtd"><svg t="1677344021904" class="icon" viewBox="0 0 1024 1024" version="1.1" xmlns="http://www.w3.org/2000/svg" p-id="2953" xmlns:xlink="http://www.w3.org/1999/xlink" width="32" height="32"><path d="M256 333.872a28.8 28.8 0 0 1 28.8 28.8V768a56.528 56.528 0 0 0 56.544 56.528h341.328A56.528 56.528 0 0 0 739.2 768V362.672a28.8 28.8 0 0 1 57.6 0V768a114.128 114.128 0 0 1-114.128 114.128H341.328A114.128 114.128 0 0 1 227.2 768V362.672a28.8 28.8 0 0 1 28.8-28.8zM405.344 269.648a28.8 28.8 0 0 0 28.8-28.8 56.528 56.528 0 0 1 56.528-56.544h42.656a56.528 56.528 0 0 1 56.544 56.544 28.8 28.8 0 0 0 57.6 0 114.128 114.128 0 0 0-112.64-114.128h-45.648a114.144 114.144 0 0 0-112.64 114.128 28.8 28.8 0 0 0 28.8 28.8z" fill="#000000" p-id="2954"></path><path d="M163.2 266.672a28.8 28.8 0 0 1 28.8-28.8h640a28.8 28.8 0 0 1 0 57.6H192a28.8 28.8 0 0 1-28.8-28.8zM426.672 371.2a28.8 28.8 0 0 1 28.8 28.8v320a28.8 28.8 0 0 1-57.6 0V400a28.8 28.8 0 0 1 28.8-28.8zM597.344 371.2a28.8 28.8 0 0 1 28.8 28.8v320a28.8 28.8 0 0 1-57.6 0V400a28.8 28.8 0 0 1 28.8-28.8z" fill="#000000" p-id="2955"></path></svg>