<?xml version="1.0" standalone="no"?><!DOCTYPE svg PUBLIC "-//W3C//DTD SVG 1.1//EN" "http://www.w3.org/Graphics/SVG/1.1/DTD/svg11.dtd"><svg t="1667893729250" class="icon" viewBox="0 0 1024 1024" version="1.1" xmlns="http://www.w3.org/2000/svg" p-id="4068" xmlns:xlink="http://www.w3.org/1999/xlink" width="32" height="32"><path d="M512 85.333333c129.6 0 234.666667 105.066667 234.666667 234.666667 0 84.256-44.394667 158.133333-111.072 199.52a425.28 425.28 0 0 1 152.853333 83.466667 32 32 0 1 1-41.493333 48.736A361.045333 361.045333 0 0 0 512 565.333333c-188.672 0-345.429333 144.672-361.344 331.413334a32 32 0 0 1-63.765333-5.429334c15.114667-177.322667 138.048-322.346667 301.546666-371.786666C321.76 478.165333 277.333333 404.266667 277.333333 320c0-129.6 105.066667-234.666667 234.666667-234.666667z m415.946667 627.381334l1.066666 1.013333a29.824 29.824 0 0 1 0 43.413333l-162.261333 152.96a31.925333 31.925333 0 0 1-22.762667 8.704 31.925333 31.925333 0 0 1-22.773333-8.704l-93.184-87.84a29.824 29.824 0 0 1 0-43.413333l1.077333-1.013333a32 32 0 0 1 43.904 0l70.976 66.901333 140.053334-132.021333a32 32 0 0 1 43.904 0zM512 149.333333c-94.261333 0-170.666667 76.405333-170.666667 170.666667s76.405333 170.666667 170.666667 170.666667 170.666667-76.405333 170.666667-170.666667-76.405333-170.666667-170.666667-170.666667z" p-id="4069"></path></svg>