<?xml version="1.0" standalone="no"?><!DOCTYPE svg PUBLIC "-//W3C//DTD SVG 1.1//EN" "http://www.w3.org/Graphics/SVG/1.1/DTD/svg11.dtd"><svg t="1676514697845" class="icon" viewBox="0 0 1024 1024" version="1.1" xmlns="http://www.w3.org/2000/svg" p-id="4441" xmlns:xlink="http://www.w3.org/1999/xlink" width="32" height="32"><path d="M512 133.12c208.91648 0 378.88 169.96352 378.88 378.88s-169.96352 378.88-378.88 378.88-378.88-169.96352-378.88-378.88 169.96352-378.88 378.88-378.88m0-71.68c-248.83712 0-450.56 201.72288-450.56 450.56s201.72288 450.56 450.56 450.56 450.56-201.72288 450.56-450.56-201.72288-450.56-450.56-450.56z" fill="#999999" p-id="4442"></path><path d="M667.136 606.72L532.48 472.064V261.12c0-19.968-15.872-35.84-35.84-35.84s-35.84 15.872-35.84 35.84v240.64l155.648 156.16c6.912 6.912 16.128 10.368 25.344 10.368 9.216 0 18.432-3.456 25.344-10.368 14.336-14.336 14.336-36.864 0-51.2z" fill="#999999" p-id="4443"></path></svg>